<svg
    xmlns="http://www.w3.org/2000/svg"
    xmlSpace="preserve"
    id="Layer_1"
    width="100%"
    x="0"
    y="0"
    version="1.1"
    viewBox="0 0 736 736"
  >
    <path
      fill="#FFFFFE"
      d="M737 242v495H1V1h736zm-46.214 5.586c-.009-10.85-.017-21.7.103-33.455-.14-3.032-.28-6.064-.173-9.997-1.266-13.89-1.811-27.89-3.942-41.645-5.15-33.242-21.277-60.414-47.714-82.25-.85-.795-1.651-1.648-2.555-2.375-30.652-24.624-66.838-30.16-105.462-30.537-3.35-.011-6.7-.022-10.54-.211-.167.047-.334.095-1.3.006-1.077.044-2.154.087-4.143-.08-94.022-.027-188.045-.056-282.067-.066-3.32 0-6.639.186-10.79.15-1.4.046-2.8.092-4.704-.006-.164.06-.329.119-1.385.055-2.688.119-5.376.238-8.963.082-6.976.315-13.954.594-20.928.952-42.764 2.194-79.183 17.6-106.722 51.395-9.402 11.539-17.397 23.894-22.091 38.96-.105.49-.21.982-.715 1.998-.387 1.48-.774 2.96-1.555 5.067-.03.245-.061.49-.27.781 0 0 .143.052-.251.899-.17.91-.342 1.82-.874 3.136-.153.52-.305 1.04-.786 2.283-1.103 6.368-2.874 12.702-3.19 19.109-1.205 24.492-1.958 49.007-2.804 73.516-.042 1.223.633 2.471.925 4.187 0 0 .112.47-.299 1.211-.215 1.44-.618 2.88-.619 4.32-.02 67.657-.224 135.316.097 202.972.162 34.128.462 68.294 2.236 102.363 1.361 26.148 9.366 50.671 25.548 71.882 18.568 24.338 41.635 42.396 71.532 50.839 21.342 6.027 43.24 7.666 65.24 7.708 95.988.184 191.978.33 287.967.035a812 812 0 0 0 68.78-3.134c22.541-1.99 43.503-9.663 61.937-23.168 25.538-18.708 44.208-42.46 52.91-73.364 5.366-19.052 7.351-38.606 7.49-58.254.38-53.323.243-106.65.298-159.975.003-3.329-.1-6.657-.037-10.915.027-36.095.065-72.19.04-108.284 0-1.387-.603-2.773-1.087-4.544-.177-.23-.407-.377-.838-.704 0 0-.112-.283.397-.439.168-.056.336-.112 1.304-.503"
    ></path>
    <path
      fill="#BEC0B9"
      d="M689.232 248.79c.284.065.514.212.608 1.013-.383 2.154-.683 3.737-1.434 5.249a267 267 0 0 0-8.449-.142c-100.215.012-200.431.041-300.647.042-100.8 0-201.599-.034-302.398-.006-3.288.001-6.577.762-9.865.754-5.956-.013-11.911-.34-17.922-.932a211 211 0 0 0-1.123-4.759s-.112-.47.288-.677c.645-.26.89-.313 1.37-.363.544-.007.855-.028 1.648-.005 2.15.07 3.817.096 5.483.096 179.47.006 358.941.018 538.412.007 30.659-.002 61.318-.102 92.32-.14.8-.033 1.255-.085 1.71-.137"
    ></path>
    <path
      fill="#E9C447"
      d="M50.825 248.908c-.31.033-.62.054-1.269-.37-.332-2.487-.329-4.54.087-6.572 10.027.362 19.644.988 29.26.998 80.535.079 161.07.045 241.606.045h194.633q83.823 0 167.648-.002c1.999 0 3.997-.03 6.059.389.083 1.906.103 3.377.124 4.849 0 0 .112.283.185.414-.38.183-.835.235-1.973.002-2.165-.41-3.647-.645-5.129-.645-208.657-.017-417.314-.018-625.97.021-1.754 0-3.508.568-5.261.871"
    ></path>
    <path
      fill="#A0A0A0"
      d="M47.797 250.38c.56 1.083.917 2.536 1.304 4.84.014 35.574-.014 70.297.02 105.02.002 1.6.56 3.198.858 5.081-.022.662-.044 1.039-.32 1.695-.362 3.903-.561 7.527-.563 11.151-.024 33.582-.026 67.164.025 100.746.002 1.745.538 3.49.839 5.53.01.694.007 1.091-.214 1.851-.366 1.173-.65 1.985-.643 2.794.23 27.706-.348 55.499 4.082 82.938 1.753 10.86 5.8 21.35 8.9 32.243.336.676.575 1.118.607 1.781 1.491 3.624 3.082 7.086 4.908 10.42 8.818 16.097 20.717 29.634 34.844 41.229 23.593 19.364 51.451 27.402 81.245 29.27 20.74 1.299 41.557 1.52 62.346 1.87 17.153.289 34.317.154 51.475.044 84.919-.546 169.839-1.011 254.755-1.85 15.325-.15 30.405-3.24 44.987-8.159 24.001-8.096 43.385-22.881 59.364-42.184 7.619-9.203 14.608-18.972 18.351-30.901.058-.699.093-1.096.449-1.675 1.257-2.093 2.385-3.937 3.096-5.93 6.308-17.673 8.395-36.142 9.354-54.681.9-17.396.773-34.845 1.01-52.272.025-1.762-.547-3.532-.85-5.6.001-.706.01-1.108.303-1.827.384-1.469.57-2.622.57-3.775.009-37.611-.001-75.223-.063-113.127-.312-.824-.57-1.357-.593-2.07.44-.736.645-1.288 1.145-1.838.684 0 1.075-.002 1.466-.004.053 3.328.156 6.656.153 9.985-.055 53.325.081 106.652-.297 159.975-.14 19.648-2.125 39.202-7.49 58.254-8.703 30.905-27.373 54.656-52.91 73.364-18.435 13.505-39.397 21.179-61.938 23.168a812 812 0 0 1-68.78 3.134c-95.989.296-191.979.149-287.968-.035-22-.042-43.897-1.681-65.24-7.708-29.896-8.443-52.963-26.501-71.53-50.839-16.183-21.21-24.188-45.734-25.55-71.882-1.773-34.069-2.073-68.235-2.235-102.363-.321-67.656-.117-135.315-.097-202.972 0-1.44.404-2.88.825-4.69"
    ></path>
    <path
      fill="#AC9852"
      d="M57.883 137.967c4.221-14.47 12.216-26.824 21.618-38.363 27.539-33.796 63.958-49.2 106.722-51.395 6.974-.358 13.952-.637 21.374-.547.433.761.42 1.118.075 1.714-13.522 1.338-26.785 1.913-39.89 3.663-18.871 2.52-36.94 7.818-53.18 18.857-.721.414-1.16.76-1.91 1.218-1.867 1.332-3.424 2.551-5.236 3.903-1.011.691-1.767 1.25-2.82 1.98-2.778 2.374-5.26 4.58-8.04 6.944-6.087 6.44-11.874 12.723-17.64 19.035.02.029.012-.04-.225.063-.415.394-.592.684-.809 1.147-.04.173-.006.525-.247.684-.486.454-.732.748-1.226 1.216-.72 1.038-1.193 1.904-1.904 2.928a15 15 0 0 0-1.6 2.164c-.048.173-.033.533-.255.694-.395.478-.568.794-.714 1.115.028.005-.01-.035-.254.137a6.6 6.6 0 0 0-.758 1.852c.038.016-.03-.031-.293.12-.424.72-.584 1.288-.722 1.886.023.03-.004-.038-.249.04-.413.371-.58.663-.723.962.027.009-.015-.027-.283.162-.818 1.383-1.368 2.575-2.129 3.937-.358.677-.506 1.185-.891 1.902a8 8 0 0 0-.716 2.002c.031.014.006-.05-.216.052-.482.322-.64.6-.86 1.22-.993 1.792-1.822 3.302-2.853 4.85-.302.13-.498.284-.487.3.14.21.31.399.458.883-.287.777-.561 1.263-1.077 1.809a41 41 0 0 0-2.04.866"
    ></path>
    <path
      fill="#AD9649"
      d="M639.416 80.822c26.08 21.253 42.208 48.425 47.358 81.667 2.13 13.755 2.676 27.756 3.53 42.088-.798.437-1.184.43-1.79.088-.968-10.233-1.054-20.237-2.636-30-1.894-11.685-5.067-23.163-7.765-35.097-3.96-12.568-10.45-23.355-18.154-33.781-.375-.445-.655-.643-.939-.812-.003.03.036-.017-.104-.323-5.654-6.136-11.168-11.966-16.864-18.076-1.634-1.953-3.087-3.625-4.065-5.416.793-.192 1.11-.265 1.429-.338"
    ></path>
    <path
      fill="#9C8D38"
      d="M208.003 49.137c.013-.357.027-.714.044-1.338 2.69-.386 5.38-.505 8.611-.426.811.096 1.078-.007 1.345-.109 1.4-.046 2.8-.092 4.942.175 1.73.398 2.719.556 3.707.557 95.008.01 190.016.013 285.024-.021 1.432-.001 2.864-.471 4.296-.722 1.077-.044 2.154-.087 3.72.079.761.127 1.031.044 1.302-.039 3.35.012 6.7.023 10.5.42.467.745.482 1.103.028 1.45-108.152-.016-215.836-.02-323.52-.026"
    ></path>
    <path
      fill="#AC9852"
      d="M531.99 49.174c-.014-.358-.029-.716-.057-1.342 37.734-.129 73.92 5.408 104.572 30.032.904.727 1.706 1.58 2.733 2.666-.14.365-.458.438-1.546.55-2.06-.69-3.35-1.417-4.668-2.125-.029.02.04.014-.067-.222-.396-.414-.685-.592-1.142-.816-.168-.045-.517-.033-.685-.291a18.5 18.5 0 0 0-2.115-1.654c-.018.024.032-.008-.14-.263-1.058-.758-1.946-1.26-2.858-1.745-.023.019.036.008-.066-.222-.386-.398-.67-.566-1.134-.788-.179-.054-.554-.06-.763-.303-.805-.404-1.4-.565-2.03-.706-.035.02.024-.036-.093-.358-.623-.742-1.088-1.23-1.643-1.571-20.583-12.705-43.544-17.056-67.163-19.08-7.043-.603-14.09-1.175-21.135-1.762"
    ></path>
    <path
      fill="#A19660"
      d="M515.516 47.147c-.976.357-2.408.827-3.84.828-95.008.034-190.016.032-285.024.02-.988 0-1.976-.158-3.291-.488a86 86 0 0 1 9.632-.531c94.022.01 188.045.04 282.523.17"
    ></path>
    <path
      fill="#AD9649"
      d="M57.646 138.266c.837-.568 1.436-.837 2.233-.803.11 1.028.022 1.753-.31 2.745-1.303 3.582-2.646 6.834-3.372 10.218-6.47 30.184-7.55 60.791-6.966 91.52-.004 2.052-.007 4.105.092 6.59-.143.483-.388.536-1.01.556-.715-1.268-1.39-2.516-1.348-3.739.846-24.509 1.6-49.024 2.805-73.516.315-6.407 2.086-12.741 3.616-19.512.525-1.032.623-1.66.72-2.287.171-.91.342-1.82.697-3.167.184-.438.245-.508.245-.508.03-.245.061-.49.568-1.145.81-2 1.145-3.591 1.48-5.182.104-.49.209-.981.55-1.77"
    ></path>
    <path
      fill="#9A9A9A"
      d="M690.912 362.525c-.449.467-.84.47-1.58.004-.391-36.114-.433-71.76-.474-107.406.3-1.583.599-3.166 1.063-5.128.486 1.008 1.088 2.394 1.09 3.78.024 36.096-.014 72.19-.099 108.75"
    ></path>
    <path
      fill="#9C8D38"
      d="m688.734 205 1.447.028c.429 3.039.568 6.07.4 9.882-.405 11.523-.5 22.267-.596 33.01-.167.057-.335.113-.758.247-.275-1.394-.295-2.865-.325-5.234-.062-13.243-.115-25.588-.168-37.933"
    ></path>
    <path
      fill="#AC9852"
      d="M690.385 247.753c-.304-10.576-.209-21.32.131-32.39.253 10.523.261 21.373-.13 32.39M56.895 140.3c-.134 1.327-.468 2.917-1.082 4.606.108-1.383.495-2.864 1.082-4.607M53.926 150.242c.083.424-.015 1.051-.375 1.72-.111-.478.041-.997.375-1.72"
    ></path>
    <path
      fill="#A19660"
      d="M217.751 47.192c-.015.174-.282.277-.647.242.066-.195.23-.255.647-.242"
    ></path>
    <path
      fill="#AC9852"
      d="M54.96 146.387c.088-.024.027.046.04.06.013.015-.13-.037-.04-.06"
    ></path>
    <path
      fill="#A19660"
      d="M520.748 47.204c-.025.172-.295.255-.656.196.077-.189.244-.237.656-.196"
    ></path>
    <path
      fill="#ECECEC"
      d="M688.406 255.052c.493 35.717.535 71.363.632 107.474-.15 1.018-.356 1.57-1.264 2.273-165.43.141-330.16.124-494.888.13-47.636.001-95.271.07-142.906.108-.3-1.599-.857-3.198-.859-4.797-.034-34.723-.006-69.446.035-104.622 5.98-.257 11.935.069 17.891.082 3.288.008 6.577-.753 9.865-.754 100.8-.028 201.599.007 302.398.006 100.216 0 200.432-.03 300.647-.042 2.666 0 5.331.045 8.449.142m-624.022 33.96c1.535-.034 3.07-.068 5.212-.156.56-.74 1.119-1.481 2.139-2.883-.962-2.162-1.49-4.773-3.066-6.3-.802-.777-4.366-.231-5.124.83-1.147 1.606-.935 4.182-1.135 6.949a17 17 0 0 1 1.974 1.56m174.171-3.494c.09-.518.179-1.035.27-2.257-1.971-1.409-3.923-3.856-5.918-3.892-1.55-.028-3.153 2.954-4.85 5.254.286.81.571 1.621 1.151 3.083 2.514 2.701 5.095 3.441 8.329-.073.223-.568.445-1.136 1.018-2.115m-84.062 2.149c.189-.54.377-1.078.78-2.425-1.148-1.975-1.894-4.521-3.59-5.712-1.03-.723-4.56.11-5.137 1.206-.95 1.807-.42 4.394-.16 7.2 2.524 2.053 5.053 3.62 8.107-.27M584.3 288.68c3.075 2.646 5.455 1.17 8.214-1.899-.592-2.313-.68-4.995-1.99-6.784-.657-.9-4.285-.94-5.23-.008-1.402 1.382-1.616 3.97-2.317 6.635.324.476.648.952 1.323 2.056m40.783-.919c3.274 3.14 6.339 3.28 9.565-1.151.071-.887.143-1.773.163-3.359-3.406-5.597-6.637-5.765-10.549.016.211 1.265.423 2.53.821 4.494m-522.017-4.262c.599 1.542 1.198 3.083 2.178 5.234 3.21 2.226 5.794 1.549 8.206-2.045-.078-.767-.156-1.534.013-3.132-1.487-1.502-3.003-4.233-4.454-4.199-1.884.044-3.717 2.288-5.943 4.142m406.202 2.835c-.607-2.118-.601-5-2.005-6.126-1.24-.995-4.978-.844-5.94.26-1.317 1.51-1.052 4.401-1.231 7.366 3.274 3.025 6.3 3.312 9.176-1.5m-125.304-1.246c-.905-1.895-1.364-4.444-2.863-5.467-1.095-.746-4.49-.078-5.2 1.027-1.096 1.703-.772 4.32-.807 7.216 4.768 3.36 7.645 2.713 8.87-2.776m167.06.074c.1-3.594-1.237-6.325-5.189-5.997-3.848.32-5.783 2.716-4.753 7.534 4.17 4.805 7.555 4.551 9.942-1.537m-426.794 1.442c1.96 1.104 3.829 2.6 5.932 3.093.705.165 2.01-2.225 3.683-3.7-.32-1.847-.025-4.45-1.122-5.344-1.317-1.072-4.489-1.58-5.648-.714-1.578 1.18-2.013 3.89-2.845 6.665m551.257.531c-.05-2.05.627-4.627-.363-5.998-.92-1.274-4.157-2.252-5.407-1.575-1.712.927-2.51 3.54-3.75 6.187.936.962 1.82 2.662 2.819 2.73 1.97.138 4.002-.628 6.7-1.344m-144.976-1.589c-1.181-2.079-1.967-4.66-3.706-6.032-.91-.718-4.124.13-5.144 1.287-.999 1.134-.533 3.558-.732 6.143 3.121 4.333 6.549 4.012 9.582-1.398m-83.37-.214c.496-4.15-1.621-6.451-5.514-6.146-3.76.294-5.835 2.658-4.582 7.477 3.451 3.225 7.871 2.896 10.096-1.33m11.94 2.464c3.602 3.37 6.442 2.775 8.976-2.645-1.306-1.98-2.22-4.745-4.056-5.664-1.253-.627-4.346.858-5.567 2.292-.792.93.304 3.47.647 6.017m-126.11-.957c3.514 4.182 5.782 4.24 9.605-.336-.618-2.206-.707-4.856-2.051-6.447-.795-.941-4.337-.978-5.28-.045-1.423 1.408-1.652 4.02-2.273 6.828m147.384 1.9c4.758 2.189 7.398 1.23 7.845-3.405 1.654-2.98-.078-5.097-2.502-5.581-1.974-.395-4.843.35-6.336 1.685-2.146 1.919-1.967 4.67.993 7.3m-179.672-1.99c-.434-2.174-.242-4.897-1.508-6.34-.95-1.083-4.493-1.388-5.59-.48-1.474 1.223-1.706 3.945-2.377 6.71 2.794 3.456 5.806 3.279 9.475.11m345.404 1.092c3.28 2.983 6.307 3.361 9.285-1.45-.853-2.232-1.24-4.899-2.75-6.522-.79-.85-4.576-.532-5.2.43-1.2 1.85-1.11 4.534-1.335 7.542m-283.041-1.627c-.39-2.021-.125-4.95-1.34-5.829-1.43-1.033-5.065-1.163-6.076-.1-1.36 1.43-1.127 4.377-1.49 7.396 4.102 3.35 6.024 3.19 8.906-1.467m-92.937.433c3.672 4.48 6.412 4.545 10.043-.39-.686-2.104-.866-4.683-2.236-6.143-.908-.967-4.274-1.115-5.202-.229-1.454 1.388-1.776 3.96-2.605 6.762m-10.789-.301c-.813-2.24-1.09-5.046-2.637-6.511-.936-.886-4.737-.404-5.637.737-1.196 1.514-.818 4.27-.994 7.209 3.284 3.143 6.29 3.414 9.268-1.435m-41.789.119c-.77-2.243-1.007-5.014-2.51-6.527-.885-.89-4.639-.5-5.56.602-1.246 1.49-1.01 4.218-1.18 7.098 3.15 3.148 6.117 3.65 9.25-1.173m345.486 1.444c3.347 3.177 6.256 2.736 9.016-1.68-.863-2.208-1.171-5.126-2.778-6.38-1.134-.885-4.864-.208-5.911 1.045-1.113 1.332-.427 4.166-.327 7.015m-376.631-2.694c.688 3.28 2.852 5.222 6.001 4.395 1.831-.48 4.02-2.467 4.536-4.221.444-1.512-.744-4.262-2.103-5.396-3.262-2.72-6.967-.615-8.434 5.222m130.208-6.212c-1.767 1.674-4.082 3.084-5.065 5.134-.478.995 1.157 3.955 2.525 4.635 1.603.796 4.321.711 5.876-.178 1.327-.76 2.737-3.644 2.247-4.796-.822-1.93-3.126-3.23-5.583-4.795m98.986 6.193c.802 1.201 1.348 2.785 2.457 3.53 2.929 1.965 6.239 1.535 7.608-1.584.793-1.806.078-5.29-1.297-6.803-2.336-2.57-5.48-1.83-7.677.945-.67.847-.802 2.121-1.091 3.912m-240.798 3.199c2.791-3.362 2.416-6.407-1.227-8.733-2.805-1.79-6.668-.359-7.598 2.946-.423 1.503-.108 4.447.741 4.835 2.255 1.03 4.983 1.024 8.084.952m227.838-8.811c-3.523-1.377-6.577-.529-7.34 3.18-.383 1.858.927 5.358 2.38 5.974 1.831.777 5.242.11 6.806-1.263 2.77-2.432 1.511-5.33-1.846-7.891M86.373 287.11l4.879.321c.45-.899 1.463-2.036 1.209-2.571-.94-1.983-2.437-5.384-3.472-5.295-2.301.197-5.174 1.683-6.462 3.567-1.36 1.992.087 4.083 3.846 3.978m527.153-2.252c-.187-1.211-.025-3.228-.624-3.488-2.069-.897-4.628-1.98-6.562-1.435-1.434.404-2.188 3.225-3.245 4.969 1.96.559 3.896 1.415 5.886 1.567 1.236.094 2.553-.88 4.545-1.613"
    ></path>
    <path
      fill="#AD9649"
      d="M51.308 248.964c1.27-.359 3.024-.926 4.777-.927 208.657-.04 417.314-.038 625.971-.021 1.482 0 2.964.235 4.785.627-30.32.322-60.98.422-91.638.424-179.471.011-358.942 0-538.412-.007-1.666 0-3.333-.026-5.483-.096"
    ></path>
    <path
      fill="#FCCE47"
      d="M688.514 204.665c.273 12.68.326 25.025.326 37.833-2.053.48-4.051.509-6.05.509q-83.825.002-167.648.002H320.509c-80.535 0-161.07.034-241.606-.045-9.616-.01-19.233-.636-29.26-.998-.996-30.749.083-61.356 6.554-91.54.726-3.384 2.07-6.636 3.771-10.237 1.825-2.399 3.006-4.51 4.366-6.944.165.033 1.235.01 1.327.3 1.827 5.74 6.563 4.441 10.686 4.442 195.496.015 390.992.013 586.487.01 3.72 0 7.87.953 9.27-4.265.094-.348 1.411-.368 1.876-.476 2.429 1.896-1.316 7.058 4.212 6.678 2.62 11.568 5.792 23.046 7.686 34.732 1.582 9.762 1.668 19.766 2.636 29.999"
    ></path>
    <path
      fill="#EDEDED"
      d="M49.946 484.147c-.287-1.744-.823-3.489-.825-5.234-.05-33.582-.049-67.164-.025-100.746.002-3.624.2-7.248 1.035-11.077 2.225-.182 3.724-.137 5.222-.137 193.03.002 386.06-.005 579.09.01 18.15.002 36.299.15 54.448.23.007 37.613.017 75.225.008 112.836 0 1.153-.186 2.306-1.038 3.729-1.919.26-3.085.244-4.25.244-168.247-.007-336.493-.024-504.738-.01-42.976.003-85.951.1-128.927.155M61.987 604.035c-3.002-10.659-7.049-21.149-8.802-32.01-4.43-27.438-3.852-55.231-4.082-82.937-.007-.81.277-1.62 1.11-2.756 150.768-.316 300.85-.296 450.93-.303 62.298-.003 124.595-.062 186.892-.096.294 1.766.866 3.536.842 5.298-.238 17.427-.11 34.876-1.01 52.272-.96 18.539-3.047 37.008-9.355 54.682-.711 1.992-1.84 3.836-3.564 5.82-1.79.052-2.79.013-3.789.013q-304.586.006-609.172.017M674.943 606.09c-3.719 11.628-10.708 21.397-18.327 30.6-15.98 19.303-35.363 34.088-59.364 42.184-14.582 4.919-29.662 8.008-44.987 8.16-84.916.838-169.836 1.303-254.755 1.849-17.158.11-34.322.245-51.475-.044-20.789-.35-41.606-.571-62.346-1.87-29.794-1.868-57.652-9.906-81.245-29.27-14.127-11.595-26.026-25.132-34.844-41.23-1.826-3.333-3.417-6.795-4.434-10.35 21.834-.122 42.986-.068 64.138-.066 182.547.017 365.093.025 547.64.036"
    ></path>
    <path
      fill="#B4B4B4"
      d="M688.836 366.902c-18.094.212-36.243.063-54.392.062-193.03-.016-386.06-.009-579.09-.01a98 98 0 0 1-4.969-.144c-.45-.45-.428-.827-.406-1.489 47.636-.322 95.271-.39 142.907-.392 164.728-.006 329.457.011 494.655.052.726.564.983 1.097 1.295 1.92M688.026 485.63c-62.288.337-124.585.396-186.882.399-150.081.007-300.163-.013-450.712-.06-.465-.435-.462-.832-.472-1.526 42.962-.35 85.937-.448 128.913-.452 168.245-.013 336.491.004 504.737.011 1.166 0 2.332.017 3.967.072.46.449.45.851.45 1.557M674.967 605.789c-182.57.29-365.116.281-547.663.264a14288 14288 0 0 1-63.93-.155c-.714-.51-.953-.953-1.29-1.63 202.96-.24 406.018-.246 609.075-.25 1 0 1.999.039 3.466.168.435.507.4.904.342 1.603"
    ></path>
    <path
      fill="#FDD353"
      d="M678.113 139.568c-5.45.746-1.704-4.416-4.133-6.312-.465.108-1.782.128-1.875.476-1.4 5.218-5.551 4.265-9.27 4.265-195.496.003-390.992.005-586.488-.01-4.123 0-8.859 1.298-10.686-4.442-.092-.29-1.162-.267-1.327-.3-1.36 2.433-2.54 4.545-4.12 6.677-.313-.706-.225-1.43-.093-2.518.318-.849.592-1.335.937-2.344.071-.522.173-.989.173-.989.829-1.51 1.658-3.02 2.865-4.924.642-.606.805-.877.868-1.21 0 0 .025.064.27-.121.389-.804.533-1.422.677-2.04.148-.508.296-1.016 1.04-1.715 1.069-1.495 1.54-2.8 2.01-4.104 0 0 .043.036.248-.073.382-.385.559-.663.736-.94 0 0 .027.067.27-.112.402-.748.56-1.317.719-1.887 0 0 .068.047.297-.118.397-.736.566-1.306.734-1.875 0 0 .039.04.262-.096.377-.472.531-.808.685-1.145 0 0-.015-.36.372-.538.758-.89 1.129-1.604 1.5-2.317.472-.866.944-1.732 1.968-2.852.756-.601.96-.947 1.164-1.293 0 0-.034-.352.236-.64.453-.57.634-.853.816-1.136 0 0 .007.07.374.054 2.6-.978 4.994-1.684 7.033-2.96 3.364-2.103 6.499-4.573 10.055-7.122 1.288 3.94-5.01 6.406-1.563 9.215 3.894-.819 6.991-2.039 10.09-2.04 176.141-.092 352.283-.089 528.425-.007 2.313 0 4.622 1.141 6.94 1.723.869.217 1.757.356 2.636.531.04-1.038.361-2.167.063-3.097-.585-1.825-1.514-3.54-2.3-5.301l1.25-.85c2.791 1.912 5.484 3.995 8.402 5.689 2.772 1.608 5.779 2.809 8.683 4.188 0 0-.039.047.066.256.38.413.656.616.932.819 7.61 10.18 14.099 20.967 18.059 33.535m-606.806-14.04 2.432-4.81-1.65-.67c-.48 1.82-.96 3.64-.782 5.48M666.2 122.08l-2.566-.617-.244 1.761c.815-.206 1.63-.413 2.81-1.144m-586.932 6.017 1.499-.165-.345-1.343c-.426.303-.853.606-1.154 1.508"
    ></path>
    <path
      fill="#FCD55C"
      d="M658.916 104.652c-2.764-1.073-5.771-2.274-8.543-3.882-2.918-1.694-5.61-3.777-8.402-5.69l-1.25.85c.786 1.761 1.715 3.477 2.3 5.302.298.93-.022 2.059-.063 3.097-.88-.175-1.767-.314-2.636-.531-2.318-.582-4.627-1.722-6.94-1.723-176.142-.082-352.284-.085-528.426.006-3.098.002-6.195 1.222-10.09 2.041-3.446-2.809 2.852-5.275 1.564-9.215-3.556 2.549-6.691 5.02-10.055 7.123-2.039 1.275-4.432 1.981-7.053 2.93 5.4-6.296 11.187-12.579 17.35-18.654 1.438.488 2.681 1.27 3.534.964 3.9-1.4 4.547-4.837 4.726-8.443.757-.56 1.513-1.119 2.943-1.772 1.85.542 3.513.88 4.115 1.866 2.19 3.585 5.407 3.657 8.12 1.776 4.986-3.457 10.442-3.688 16.056-3.689C215.275 76.997 294.383 77 373.492 77c76.61 0 153.221-.062 229.831.153 4.681.014 9.366 2.197 14.03 3.44 2.408.641 4.983 2.443 6.821-1.82-1.42-.62-2.722-1.142-3.983-1.747-2.573-1.234-5.225-2.354-7.621-3.873-.683-.433-.599-2.077-.866-3.166 1.182-.05 2.42-.348 3.535-.097 2.304.518 4.543 1.329 6.809 2.019 0 0-.059.056.144.315.825.397 1.448.534 2.071.67 0 0 .375.006.669.28.505.55.781.725 1.12.798 0 0-.058.01.002.346 1.037.773 2.015 1.21 2.993 1.646 0 0-.05.032.004.356.785.738 1.516 1.15 2.247 1.564 0 0 .349-.012.633.263.567.457.85.64 1.133.822 0 0-.069.006-.054.37 1.923 7.523 3.835 9.007 9.223 7.517 5.515 5.83 11.03 11.66 16.683 17.796"
    ></path>
    <path
      fill="#F9D864"
      d="M621.931 71.587c-2.149-.368-4.388-1.179-6.692-1.697-1.115-.25-2.353.047-3.535.097.267 1.089.183 2.733.866 3.166 2.396 1.519 5.048 2.64 7.62 3.873 1.262.605 2.563 1.127 3.984 1.746-1.838 4.264-4.413 2.462-6.82 1.82-4.665-1.242-9.35-3.425-14.031-3.439-76.61-.215-153.22-.153-229.831-.153-79.109 0-158.217-.003-237.326.008-5.614.001-11.07.232-16.055 3.689-2.714 1.881-5.931 1.81-8.12-1.776-.603-.986-2.266-1.324-3.861-1.998 1.138-1.258 2.695-2.477 4.563-3.404.447 1.543.583 2.796.87 5.438 4.286-2.03 7.913-3.546 11.293-5.49.85-.49.908-2.356 1.33-3.589-1.363.026-2.763-.139-4.08.12-2.433.479-4.818 1.206-7.223 1.83 15.958-10.971 34.028-16.27 52.9-18.79 13.104-1.75 26.367-2.324 39.89-3.662 108.013-.234 215.697-.229 323.849-.213 7.513.598 14.56 1.17 21.603 1.773 23.62 2.024 46.58 6.375 67.163 19.08.555.342 1.02.829 1.643 1.57"
    ></path>
    <path
      fill="#FCD55C"
      d="M114.601 71.896c2.687-.692 5.072-1.42 7.505-1.898 1.317-.259 2.717-.094 4.08-.12-.422 1.233-.48 3.1-1.33 3.588-3.38 1.945-7.007 3.461-11.292 5.49-.288-2.641-.424-3.894-.56-5.55.438-.75.877-1.096 1.597-1.51"
    ></path>
    <path
      fill="#F9D864"
      d="M104.635 78.996c.118 3.437-.53 6.874-4.43 8.274-.852.306-2.095-.476-3.234-1.122 2.406-2.57 4.887-4.777 7.664-7.152"
    ></path>
    <path
      fill="#FCD55C"
      d="M68.694 120.146c-.203 1.115-.674 2.42-1.532 3.746.164-1.17.714-2.363 1.532-3.746M74.545 111.014c-.132.555-.503 1.268-1.213 1.986.098-.607.537-1.218 1.213-1.986M70.67 117.096q.159.629-.477 1.707-.158-.63.478-1.707M65.674 125.985c.093.41-.051 1.027-.471 1.817-.106-.421.064-1.015.47-1.817M71.722 115.124c.075.397-.094.967-.53 1.687-.082-.405.102-.96.53-1.687M78.73 105.039c.056.179-.125.462-.538.86-.053-.176.124-.466.539-.86M77.675 106.87c.037.187-.167.533-.674.96-.058-.212.188-.506.674-.96M72.69 113.872c.068.176-.085.512-.49.979-.078-.185.095-.501.49-.979"
    ></path>
    <path
      fill="#AD9649"
      d="M61.029 134.11c.202-.039.1.428.043.66-.22.038-.39-.151-.53-.36-.01-.017.185-.172.487-.3"
    ></path>
    <path
      fill="#FCD55C"
      d="M64.742 128.039c.16.23-.004.502-.48.825-.16-.225-.002-.503.48-.825M69.7 119.023c.068.198-.109.476-.517.853-.064-.191.104-.483.517-.853"
    ></path>
    <path
      fill="#F9D864"
      d="M642.052 86.576c-5.207 1.77-7.119.286-9.013-7.256 1.303.343 2.593 1.07 4.178 1.878 1.748 1.753 3.2 3.425 4.835 5.378"
    ></path>
    <path
      fill="#FCD55C"
      d="M659.96 105.787c-.182.043-.457-.16-.835-.603.179-.04.46.158.834.603"
    ></path>
    <path
      fill="#F9D864"
      d="M628.876 75.71c-.807-.183-1.785-.62-2.799-1.41.852.148 1.74.651 2.799 1.41M631.13 77.626c-.563-.155-1.294-.568-2.061-1.329.607.125 1.25.598 2.061 1.329M624.054 72.651c-.414.107-1.037-.03-1.828-.446.427-.119 1.023.042 1.828.446M625.951 73.742c-.238.157-.514-.018-.84-.514.17-.052.454.116.84.514M632.957 78.733c-.176.054-.459-.129-.858-.54.173-.052.462.126.858.54"
    ></path>
    <path
      fill="#8F8F8F"
      d="M186.319 284.84c1.534-5.463 5.239-7.569 8.5-4.848 1.36 1.134 2.548 3.884 2.104 5.396-.515 1.754-2.705 3.74-4.536 4.221-3.15.827-5.313-1.116-6.068-4.769M316.983 279.003c2.068 1.565 4.372 2.864 5.194 4.794.49 1.152-.92 4.037-2.247 4.796-1.555.89-4.273.974-5.876.178-1.368-.68-3.003-3.64-2.525-4.635.983-2.05 3.298-3.46 5.454-5.133M415.535 284.839c.334-1.435.465-2.709 1.136-3.556 2.196-2.774 5.34-3.515 7.677-.945 1.375 1.512 2.09 4.997 1.297 6.803-1.37 3.12-4.68 3.549-7.608 1.583-1.109-.744-1.655-2.328-2.502-3.885M174.501 288.633c-2.82-.167-5.548-.161-7.803-1.191-.85-.388-1.164-3.332-.741-4.835.93-3.305 4.793-4.736 7.598-2.946 3.643 2.326 4.018 5.371.946 8.972M402.964 279.774c3.013 2.37 4.272 5.268 1.502 7.7-1.564 1.372-4.975 2.04-6.806 1.263-1.453-.616-2.763-4.116-2.38-5.974.763-3.709 3.817-4.557 7.684-2.989"
    ></path>
    <path
      fill="#7F7F7F"
      d="M85.97 287.114c-3.356.1-4.803-1.99-3.443-3.982 1.288-1.884 4.16-3.37 6.462-3.567 1.035-.089 2.532 3.312 3.472 5.295.254.535-.759 1.672-1.21 2.571-1.708-.112-3.293-.217-5.282-.317M613.17 284.977c-1.636.613-2.953 1.588-4.189 1.494-1.99-.152-3.927-1.008-5.886-1.567 1.057-1.744 1.81-4.565 3.245-4.969 1.934-.545 4.493.538 6.562 1.435.6.26.437 2.277.269 3.607M562.817 287.237c.1-2.178-.586-5.012.527-6.344 1.047-1.253 4.777-1.93 5.91-1.046 1.608 1.255 1.916 4.173 2.325 6.686-1.9-.623-3.346-1.551-4.793-2.48zM208.051 286.954c.4-2.197.164-4.925 1.41-6.415.921-1.102 4.675-1.492 5.56-.602 1.503 1.513 1.74 4.284 1.906 6.731-3.392-2.848-6.139-1.74-8.876.286M249.93 287.064c.298-2.222-.08-4.979 1.116-6.493.9-1.141 4.7-1.623 5.637-.737 1.546 1.465 1.824 4.27 2.077 6.748-3.414-2.96-6.127-1.4-8.83.482M270.137 285.914c.801-2.07 1.123-4.642 2.577-6.03.928-.886 4.294-.738 5.202.229 1.37 1.46 1.55 4.039 1.742 6.437-3.158-3.36-6.47-.737-9.521-.636M354.053 286.956c.45-2.295.216-5.241 1.577-6.672 1.011-1.063 4.646-.933 6.075.1 1.216.88.95 3.808.97 6.04-3.248-2.941-5.926-.949-8.622.532M645.868 287.17c.445-2.338.354-5.023 1.553-6.871.625-.963 4.41-1.28 5.2-.43 1.51 1.622 1.898 4.289 2.21 6.763-3.487-3.599-6.274-2.934-8.963.537M291.114 285.952c.765-2.079.997-4.801 2.471-6.023 1.097-.909 4.64-.604 5.59.479 1.266 1.443 1.074 4.166.964 6.309-2.898-5.738-6.143-1.155-9.025-.765M480.005 288.116c-2.61-2.008-2.789-4.759-.643-6.678 1.493-1.335 4.362-2.08 6.336-1.685 2.424.484 4.156 2.6 2.008 5.88-3.787-1.91-6.663-2.745-7.7 2.483M332.856 286.131c.736-2.1.965-4.712 2.387-6.12.944-.933 4.486-.896 5.28.045 1.345 1.59 1.434 4.241 1.511 6.521-3.245-3.003-6.122-3.201-9.178-.446M458.988 287.066c-.25-1.818-1.347-4.357-.555-5.287 1.221-1.434 4.314-2.92 5.567-2.292 1.837.92 2.75 3.685 3.676 5.947-3.56-1.789-6.365-1.562-8.688 1.632M582.959 286.034c.72-2.075.933-4.664 2.335-6.046.945-.932 4.573-.892 5.23.008 1.31 1.789 1.398 4.471 1.645 6.798-.642-.238-.938-.49-1.243-1.08-.686-.74-1.365-1.143-2.347-1.57-.709-.04-1.114-.054-1.872-.093-1.485.644-2.616 1.313-3.748 1.983M437.028 285.984c-1.237-4.14.838-6.505 4.598-6.8 3.893-.304 6.01 1.998 5.1 6.233-3.693-3.345-6.666-.82-9.698.567M520.95 286.216c.177-1.858-.289-4.282.71-5.416 1.02-1.157 4.234-2.005 5.144-1.287 1.74 1.373 2.525 3.953 3.149 6.243-3.422-1.394-6.315-3.938-9.004.46M666.019 284.993c1.189-1.891 1.986-4.505 3.698-5.432 1.25-.677 4.486.3 5.407 1.575.99 1.37.313 3.948.077 5.72-1.496-1.11-2.633-2.47-3.932-2.648-1.682-.23-3.494.48-5.25.785M124.137 285.881c.925-2.053 1.36-4.763 2.938-5.943 1.16-.866 4.331-.358 5.648.714 1.097.893.801 3.497.466 5.283-3.457-2.92-6.255-2.126-9.052-.054M62.245 286.85c.365-2.165.153-4.741 1.3-6.347.758-1.061 4.322-1.607 5.124-.83 1.576 1.527 2.104 4.138 2.681 6.247-1.706-.676-3.027-1.299-4.605-1.93a32 32 0 0 0-1.11-.002c-1.36.957-2.375 1.91-3.39 2.862M541.03 285.972c-.978-4.092.957-6.488 4.805-6.808 3.952-.328 5.289 2.403 4.783 6.369-3.484-1.938-6.548-2.369-9.589.44M374.85 287.196c.279-2.23-.045-4.846 1.05-6.55.711-1.104 4.106-1.772 5.2-1.026 1.5 1.023 1.959 3.572 2.498 5.73-3.844-2.834-6.465-1.387-8.748 1.846M146.034 287.388c.093-2.258-.439-4.845.512-6.652.577-1.096 4.107-1.929 5.136-1.206 1.697 1.19 2.443 3.737 3.193 5.923-1.575-.319-2.755-.849-4.238-1.38-.71.03-1.114.063-1.858.07-.797.62-1.255 1.265-1.962 2.068-.427.497-.605.837-.783 1.177M499.859 287.167c.412-2.299.147-5.19 1.464-6.7.962-1.104 4.7-1.255 5.94-.26 1.404 1.126 1.398 4.008 1.653 6.375-.558-.006-.764-.262-1-.883-2.612-2.98-5.105-4.757-7.009.598-.442.45-.745.66-1.048.87"
    ></path>
    <path
      fill="#ABABAB"
      d="M541.056 286.335c3.014-3.17 6.078-2.74 9.52-.404-1.94 5.318-5.323 5.572-9.52.404M124.184 286.242c2.75-2.433 5.548-3.227 8.683-.18-.695 1.41-2 3.799-2.705 3.634-2.103-.493-3.972-1.99-5.978-3.454M374.972 287.53c2.161-3.567 4.782-5.014 8.582-1.778-.815 4.824-3.692 5.47-8.582 1.778M520.938 286.58c2.7-4.762 5.593-2.218 8.807-.554-2.268 4.929-5.696 5.25-8.807.553"
    ></path>
    <path
      fill="#A0A0A0"
      d="M332.913 286.485c2.999-3.11 5.876-2.911 8.868.376-3.03 4.217-5.297 4.16-8.868-.376"
    ></path>
    <path
      fill="#ABABAB"
      d="M459.034 287.431c2.277-3.559 5.082-3.786 8.582-1.601-2.094 4.74-4.934 5.336-8.582 1.601"
    ></path>
    <path
      fill="#7F7F7F"
      d="M228.175 283.967c1.58-1.644 3.183-4.626 4.732-4.598 1.995.036 3.947 2.483 5.532 4.25-3.678.354-6.97.35-10.264.348"
    ></path>
    <path
      fill="#ABABAB"
      d="M480.18 288.427c.863-5.54 3.739-4.704 7.382-2.464.191 4.006-2.45 4.965-7.382 2.464"
    ></path>
    <path
      fill="#9A9A9A"
      d="M437.036 286.323c3.024-1.725 5.997-4.25 9.572-.607-1.693 3.842-6.113 4.17-9.572.607"
    ></path>
    <path
      fill="#ABABAB"
      d="M645.977 287.504c2.58-3.806 5.367-4.47 8.653-.581-2.236 4.278-5.263 3.9-8.653.581"
    ></path>
    <path
      fill="#9A9A9A"
      d="M104.862 288.122c-.598-1.541-1.197-3.082-1.135-4.86 3.604.217 6.546.67 9.489 1.124.078.767.156 1.534-.315 2.44-1.994-.446-3.44-1.032-4.818-1.59z"
    ></path>
    <path
      fill="#ABABAB"
      d="M270.123 286.28c3.065-.467 6.377-3.09 9.375.58-2.977 4.33-5.717 4.266-9.375-.58"
    ></path>
    <path
      fill="#7F7F7F"
      d="M624.676 282.724c3.498-5.24 6.729-5.071 9.777.854-3.497-.066-6.637-.46-9.777-.854"
    ></path>
    <path
      fill="#ABABAB"
      d="M354.097 287.318c2.652-1.843 5.33-3.835 8.53-.526-2.463 4.078-4.385 4.238-8.53.526"
    ></path>
    <path
      fill="#9A9A9A"
      d="M291.161 286.295c2.835-.733 6.08-5.316 8.726.635-2.873 2.987-5.885 3.164-8.726-.635M624.47 282.995c3.346.123 6.486.517 10.009.933.312.908.24 1.794-.43 2.901-3.453-2.036-6.303-.902-9.153.232-.211-1.265-.423-2.53-.427-4.066"
    ></path>
    <path
      fill="#ABABAB"
      d="M562.917 287.572c1.158-1.344 2.415-2.353 3.869-3.519 1.447.929 2.893 1.857 4.665 2.79-2.178 3.8-5.087 4.242-8.534.73"
    ></path>
    <path
      fill="#9A9A9A"
      d="M665.993 285.37c1.782-.682 3.594-1.392 5.276-1.162 1.3.179 2.436 1.537 3.586 2.81-2.067.832-4.1 1.598-6.069 1.46-.998-.068-1.883-1.768-2.793-3.108"
    ></path>
    <path
      fill="#7F7F7F"
      d="M113.34 283.97c-3.067-.037-6.01-.49-9.427-.987 1.38-1.34 3.212-3.583 5.096-3.627 1.451-.034 2.967 2.697 4.33 4.614"
    ></path>
    <path
      fill="#ABABAB"
      d="M208.166 287.296c2.622-2.368 5.369-3.476 8.515-.341-2.283 4.332-5.25 3.83-8.515.34M249.99 287.422c2.643-2.24 5.356-3.8 8.562-.553-2.21 4.325-5.216 4.054-8.561.553M507.946 286.064c.206.256.412.512.848.867-2.401 4.214-5.428 3.927-8.819.57.187-.544.49-.754 1.293-1.23 2.56-.247 4.62-.227 6.678-.207M624.99 287.41c2.756-1.483 5.606-2.617 8.837-.323-2.405 3.953-5.47 3.813-8.837.323"
    ></path>
    <path
      fill="#B4B4B4"
      d="M587.06 284.075c.405.015.81.029 1.59.368a51 51 0 0 0 2.284 1.61c.297.252.593.503.962 1.044-2.14 2.753-4.521 4.228-7.494 1.09.954-1.699 1.806-2.905 2.658-4.112M146.21 287.662c.002-.614.18-.954.915-1.496 1.036-.8 1.514-1.399 1.993-1.997.405-.033.81-.065 1.572.22 1.352 1.426 2.346 2.533 3.34 3.64-2.59 3.527-5.12 1.96-7.82-.367"
    ></path>
    <path
      fill="#ABABAB"
      d="M237.02 287.976c-2.717 3.171-5.298 2.431-7.601-.638 2.634-.686 5.058-1.005 7.519-.997.052.762.067 1.199.082 1.635"
    ></path>
    <path
      fill="#8F8F8F"
      d="M236.9 286.015c-2.423.318-4.847.637-7.628.998-.644-.769-.93-1.58-1.156-2.718 3.352-.325 6.645-.322 10.323-.324.295.512.206 1.03-.385 1.78-.72.243-.936.253-1.153.264"
    ></path>
    <path
      fill="#ABABAB"
      d="M105.053 288.427c.842-1.23 1.874-2.155 3.03-3.191 1.378.558 2.824 1.144 4.626 1.766-1.671 3.279-4.254 3.956-7.656 1.425M65.977 283.984c.171 0 .342-.001.913.318.967 1.75 1.533 3.18 2.1 4.609-1.535.033-3.07.067-4.8-.53.467-1.886 1.127-3.142 1.787-4.397"
    ></path>
    <path
      fill="#8F8F8F"
      d="M69.293 288.884c-.87-1.403-1.436-2.832-2.148-4.574 1.178.311 2.5.934 3.975 1.94-.405 1.125-.964 1.865-1.827 2.634"
    ></path>
    <path
      fill="#9A9A9A"
      d="M586.707 284.05c-.499 1.232-1.35 2.438-2.48 3.823-.602-.298-.926-.774-1.26-1.545 1.124-.964 2.255-1.633 3.74-2.277M154.262 287.848c-1.226-.926-2.22-2.033-3.267-3.457 1.125.213 2.305.743 3.774 1.466.101.732-.087 1.27-.507 1.99"
    ></path>
    <path
      fill="#8F8F8F"
      d="M65.634 283.988c-.317 1.251-.977 2.507-1.66 4.147-.537.028-1.05-.327-1.647-.984.933-1.254 1.949-2.206 3.307-3.163"
    ></path>
    <path
      fill="#7F7F7F"
      d="M236.938 286.34c.18-.336.397-.346.94-.384.104.541-.118 1.11-.6 1.848-.273-.264-.288-.7-.34-1.463"
    ></path>
    <path
      fill="#FCCE47"
      d="M70.978 125.518c.15-1.83.63-3.65 1.11-5.47l1.651.67c-.81 1.603-1.62 3.206-2.761 4.8M666.017 122.344c-.998.468-1.812.675-2.627.881l.244-1.761c.855.206 1.71.411 2.383.88M79.205 127.798c.364-.602.79-.905 1.217-1.208l.345 1.343c-.5.055-1 .11-1.562-.135"
    ></path>
    <path
      fill="#9A9A9A"
      d="M590.926 285.714c-.628-.09-1.265-.517-1.973-1.245.608.102 1.287.505 1.973 1.245M148.779 284.144c-.14.623-.618 1.221-1.405 1.864.15-.6.608-1.245 1.405-1.864"
    ></path>
    <path
      fill="#8F8F8F"
      d="M507.916 285.7c-2.029.344-4.088.324-6.508.331 1.403-5.089 3.896-3.311 6.508-.332"
    ></path>
  </svg>